<svg width="55" height="64" viewBox="0 0 55 64" fill="none" xmlns="http://www.w3.org/2000/svg">
<g clip-path="url(#clip0_2032_858)">
<path d="M27.5 0L0 16V48L27.5 64L55 48V16L27.5 0ZM27.5 47.7268C24.4135 47.7262 21.3965 46.8033 18.8305 45.0748C16.2645 43.3464 14.2647 40.89 13.084 38.0162C11.9033 35.1425 11.5946 31.9805 12.1972 28.93C12.7997 25.8795 14.2862 23.0775 16.4689 20.8784C18.6516 18.6793 21.4324 17.1818 24.4596 16.5752C27.4868 15.9686 30.6245 16.2803 33.476 17.4707C36.3274 18.6611 38.7646 20.6768 40.4793 23.263C42.194 25.8492 43.1092 28.8897 43.1092 32C43.1092 34.0655 42.7054 36.1108 41.9209 38.0191C41.1365 39.9273 39.9867 41.6612 38.5372 43.1216C37.0877 44.582 35.3669 45.7403 33.4731 46.5305C31.5794 47.3207 29.5497 47.7272 27.5 47.7268Z" fill="#154244"/>
</g>
<defs>
<clipPath id="clip0_2032_858">
<rect width="55" height="64" fill="white"/>
</clipPath>
</defs>
</svg>
