<svg width="15" height="15" viewBox="0 0 15 15" fill="none" xmlns="http://www.w3.org/2000/svg">
<path d="M7.26562 0C11.2793 0 14.5312 3.25195 14.5312 7.26562C14.5312 11.2793 11.2793 14.5312 7.26562 14.5312C3.25195 14.5312 0 11.2793 0 7.26562C0 3.25195 3.25195 0 7.26562 0ZM9.96094 9.16992C10.0195 9.11133 10.0781 8.99414 10.0781 8.87695C10.0781 8.73047 9.99023 8.61328 9.90234 8.52539L8.20312 7.26562V3.04688C8.20312 2.8125 7.96875 2.57812 7.73438 2.57812H6.79688C6.5332 2.57812 6.32812 2.8125 6.32812 3.04688V7.61719C6.32812 7.99805 6.47461 8.32031 6.76758 8.52539L8.73047 9.99023C8.78906 10.0488 8.90625 10.1074 8.99414 10.1074C9.16992 10.1074 9.28711 10.0195 9.375 9.90234L9.96094 9.16992Z" fill="#154244"/>
</svg>
