<svg width="273" height="37" viewBox="0 0 273 37" fill="none" xmlns="http://www.w3.org/2000/svg">
<path d="M75.764 7.5351H68.5018V29.4649H75.9427C79.3688 29.4649 82.0067 28.5186 83.8564 26.6261C85.6956 24.7265 86.6204 22.0354 86.6204 18.5317C86.6204 15.028 85.6851 12.2947 83.8039 10.3845C81.9226 8.47434 79.2427 7.5351 75.764 7.5351ZM80.8401 24.1249C80.175 24.7797 79.3776 25.2835 78.5019 25.6021C77.6261 25.9207 76.6924 26.0468 75.764 25.9718H72.5165V11.0177H75.785C76.7142 10.9447 77.6481 11.0728 78.5238 11.3932C79.3995 11.7136 80.1966 12.219 80.8612 12.8751C81.9542 14.1415 82.5007 16.027 82.5007 18.5317C82.651 20.5377 82.0598 22.529 80.8401 24.1249Z" fill="white"/>
<path d="M89.2689 11.8514H91.1396L89.5421 16.7376H91.7281L93.7565 11.366V7.5351H89.2689V11.8514Z" fill="white"/>
<path d="M111.633 24.03L102.217 7.5351H97.54V29.4649H101.544V13.4344L110.835 29.4649H115.627V7.5351H111.633V24.03Z" fill="white"/>
<path d="M129.006 13.276C127.757 12.5563 126.336 12.1915 124.897 12.2207C123.425 12.1789 121.971 12.544 120.693 13.276C119.5 13.9941 118.534 15.037 117.908 16.2837C117.22 17.6911 116.882 19.2441 116.92 20.8111C116.883 22.3847 117.221 23.9444 117.908 25.3596C118.524 26.6172 119.496 27.6636 120.703 28.3673C122.01 29.0945 123.487 29.4588 124.981 29.4226C126.691 29.4754 128.374 28.9882 129.794 28.0296C131.105 27.1217 132.051 25.7749 132.464 24.2304L128.428 23.9877C128.229 24.6726 127.797 25.2661 127.209 25.6656C126.555 26.0879 125.789 26.2979 125.012 26.2672C124.496 26.2964 123.979 26.2177 123.494 26.0361C123.009 25.8544 122.567 25.5738 122.196 25.2118C121.421 24.3092 121.002 23.1529 121.019 21.9614H132.674V21.1066C132.72 19.4676 132.393 17.8396 131.717 16.347C131.146 15.0702 130.2 13.9989 129.006 13.276ZM121.029 19.302C121.108 18.2072 121.557 17.1723 122.301 16.3681C122.638 16.0233 123.043 15.7517 123.49 15.5701C123.936 15.3886 124.415 15.301 124.897 15.3128C125.37 15.2956 125.842 15.3725 126.286 15.5391C126.729 15.7057 127.136 15.9588 127.482 16.2837C128.229 17.0962 128.639 18.1645 128.628 19.2703L121.029 19.302Z" fill="white"/>
<path d="M145.926 20.579C144.612 20.0701 143.244 19.716 141.849 19.5237C141.177 19.4234 140.516 19.2645 139.873 19.0488C139.466 18.9177 139.102 18.6768 138.822 18.3523C138.607 18.0434 138.497 17.6735 138.507 17.2969C138.496 17.0103 138.555 16.7254 138.677 16.4664C138.8 16.2073 138.983 15.9818 139.211 15.8089C139.83 15.3931 140.57 15.1963 141.313 15.2496C141.863 15.239 142.408 15.3508 142.91 15.5767C143.338 15.7898 143.701 16.1142 143.961 16.516C144.238 16.9602 144.423 17.4553 144.508 17.9723L148.48 17.7824C148.357 16.7631 147.997 15.7872 147.429 14.933C146.824 14.0663 145.996 13.3807 145.033 12.949C143.86 12.4393 142.59 12.1943 141.313 12.2313C139.481 12.1247 137.668 12.6497 136.173 13.7193C135.603 14.1582 135.145 14.7266 134.836 15.3779C134.528 16.0292 134.377 16.7447 134.397 17.4658C134.368 18.3017 134.576 19.1287 134.996 19.8508C135.52 20.584 136.253 21.1398 137.098 21.4444C138.379 21.9457 139.711 22.2997 141.071 22.4997C141.84 22.6246 142.599 22.808 143.341 23.0485C143.745 23.1642 144.109 23.3908 144.392 23.7028C144.58 23.9709 144.676 24.2932 144.665 24.6209C144.68 24.906 144.615 25.1896 144.477 25.4395C144.34 25.6894 144.136 25.8957 143.887 26.0351C143.211 26.3639 142.463 26.5163 141.712 26.4783C140.805 26.5447 139.903 26.295 139.158 25.7713C138.573 25.256 138.199 24.5418 138.107 23.7661L134.071 23.9455C134.149 24.9819 134.513 25.9761 135.122 26.816C135.765 27.7024 136.643 28.3898 137.655 28.8001C138.953 29.3089 140.34 29.5494 141.733 29.5071C142.993 29.5317 144.248 29.3389 145.443 28.9373C146.406 28.6201 147.259 28.0345 147.902 27.2487C148.429 26.5302 148.734 25.6718 148.779 24.7804C148.824 23.889 148.607 23.0041 148.154 22.2359C147.601 21.4643 146.823 20.8852 145.926 20.579Z" fill="white"/>
<path d="M156.499 9.10754H152.568V12.9701H149.983V16.0305H152.568V24.737C152.513 25.3815 152.586 26.0305 152.783 26.6464C152.98 27.2624 153.296 27.833 153.714 28.3252C154.724 29.1664 156.022 29.5758 157.329 29.4649H160.798V26.3834H158.496C157.944 26.4307 157.394 26.2729 156.951 25.9401C156.765 25.7222 156.625 25.4684 156.54 25.1944C156.456 24.9205 156.427 24.6319 156.457 24.3466V16.0094H160.798V12.949H156.457L156.499 9.10754Z" fill="white"/>
<path d="M177.13 25.9718C176.944 25.7119 176.862 25.3922 176.898 25.0747V19.0804C176.958 18.156 176.83 17.2291 176.521 16.3562C176.212 15.4834 175.729 14.6831 175.101 14.0043C174.377 13.3721 173.535 12.8901 172.624 12.5858C171.713 12.2815 170.751 12.161 169.794 12.2313C168.036 12.15 166.299 12.6424 164.844 13.6349C163.55 14.6129 162.686 16.0591 162.437 17.6663L166.441 17.8457C166.594 17.1041 166.99 16.4353 167.566 15.9461C168.208 15.4697 168.997 15.2345 169.794 15.2812C170.228 15.248 170.665 15.3101 171.073 15.4631C171.482 15.6162 171.852 15.8566 172.158 16.1677C172.75 16.9132 173.039 17.8556 172.968 18.806L167.513 19.8614C166.042 20.0621 164.652 20.6563 163.488 21.5816C163.04 22.0102 162.69 22.5312 162.461 23.1086C162.232 23.6861 162.131 24.3064 162.164 24.927C162.136 25.5656 162.265 26.2013 162.538 26.7788C162.811 27.3563 163.22 27.8581 163.73 28.2407C164.961 29.0939 166.44 29.5132 167.934 29.4332C168.875 29.445 169.811 29.2878 170.698 28.9689C171.488 28.6977 172.206 28.2503 172.8 27.6603C173.123 27.3149 173.389 26.9194 173.588 26.4889C173.643 26.9164 173.764 27.3328 173.945 27.7236C174.212 28.238 174.651 28.6415 175.185 28.8634C175.762 29.0867 176.375 29.1977 176.993 29.1905C177.28 29.1905 177.564 29.1905 177.844 29.1905C178.047 29.1814 178.248 29.1495 178.443 29.0955V26.225H177.918C177.776 26.2489 177.63 26.2384 177.493 26.1943C177.356 26.1503 177.231 26.074 177.13 25.9718ZM172.926 22.4258C172.944 23.1877 172.763 23.941 172.4 24.6104C172.057 25.2296 171.542 25.7355 170.918 26.0667C170.219 26.4334 169.437 26.615 168.648 26.5944C168.003 26.6363 167.363 26.4496 166.841 26.0667C166.649 25.8781 166.497 25.6531 166.394 25.4049C166.29 25.1566 166.236 24.8901 166.236 24.6209C166.236 24.3517 166.29 24.0852 166.394 23.837C166.497 23.5887 166.649 23.3637 166.841 23.1751C167.387 22.7382 168.04 22.4574 168.732 22.3625L172.936 21.4971L172.926 22.4258Z" fill="white"/>
<path d="M197.571 24.526L191.538 7.5351H186.157V29.4649H190.151V14.3314L195.658 29.4333H199.473L204.98 14.3314V29.4649H208.984V7.5351H203.593L197.571 24.526Z" fill="white"/>
<path d="M225.18 25.9717C225 25.7095 224.918 25.3917 224.948 25.0747V19.0804C225.009 18.156 224.88 17.229 224.571 16.3562C224.262 15.4834 223.779 14.683 223.151 14.0043C222.427 13.3716 221.585 12.8892 220.674 12.5849C219.763 12.2806 218.801 12.1605 217.844 12.2313C216.086 12.15 214.35 12.6424 212.894 13.6349C211.598 14.6102 210.738 16.0584 210.498 17.6663L214.491 17.8457C214.637 17.0782 215.059 16.3917 215.678 15.9183C216.297 15.4449 217.068 15.218 217.844 15.2812C218.28 15.2493 218.718 15.3119 219.128 15.4648C219.537 15.6178 219.91 15.8575 220.219 16.1677C220.802 16.9171 221.087 17.8575 221.018 18.806L215.574 19.8614C214.099 20.0603 212.705 20.6545 211.538 21.5816C211.082 22.0118 210.725 22.5371 210.493 23.1205C210.261 23.7038 210.158 24.3313 210.193 24.9586C210.166 25.5983 210.295 26.2349 210.57 26.8126C210.845 27.3903 211.257 27.8916 211.769 28.2724C212.985 29.1179 214.444 29.5371 215.921 29.4649C216.862 29.4767 217.798 29.3194 218.685 29.0005C219.475 28.7293 220.193 28.2819 220.787 27.6919C221.113 27.3469 221.383 26.9514 221.585 26.5205C221.632 26.9499 221.753 27.3678 221.943 27.7553C222.203 28.2712 222.639 28.6758 223.172 28.895C223.749 29.1176 224.362 29.2286 224.98 29.2222C225.274 29.2222 225.558 29.2222 225.831 29.2222C226.034 29.213 226.235 29.1812 226.43 29.1272V26.225H225.905C225.773 26.2388 225.639 26.2233 225.514 26.1795C225.389 26.1358 225.275 26.0648 225.18 25.9717ZM220.976 22.4258C220.994 23.1877 220.813 23.941 220.45 24.6104C220.108 25.2266 219.597 25.7319 218.979 26.0667C218.275 26.4321 217.491 26.6136 216.698 26.5944C216.056 26.6347 215.42 26.448 214.901 26.0667C214.689 25.8845 214.521 25.6553 214.412 25.3971C214.302 25.1389 214.254 24.8588 214.271 24.5787C214.262 24.3178 214.308 24.058 214.405 23.8162C214.503 23.5743 214.651 23.3559 214.838 23.1751C215.384 22.7381 216.038 22.4574 216.73 22.3625L220.934 21.4971L220.976 22.4258Z" fill="white"/>
<path d="M239.62 20.579C238.306 20.0701 236.937 19.716 235.542 19.5237C234.871 19.4234 234.21 19.2645 233.566 19.0488C233.159 18.9177 232.795 18.6768 232.515 18.3523C232.301 18.0434 232.19 17.6735 232.2 17.2969C232.19 17.0103 232.248 16.7254 232.371 16.4664C232.493 16.2073 232.676 15.9818 232.904 15.8089C233.523 15.3931 234.263 15.1963 235.006 15.2496C235.556 15.239 236.102 15.3508 236.604 15.5767C237.031 15.7898 237.394 16.1142 237.655 16.516C237.931 16.9602 238.117 17.4553 238.201 17.9723L242.174 17.7824C242.05 16.7631 241.69 15.7872 241.123 14.933C240.529 14.0722 239.716 13.3871 238.769 12.9489C237.596 12.4393 236.326 12.1943 235.048 12.2313C233.209 12.1198 231.388 12.645 229.888 13.7193C229.318 14.1582 228.86 14.7266 228.551 15.3779C228.242 16.0292 228.092 16.7447 228.112 17.4658C228.083 18.3017 228.29 19.1287 228.711 19.8508C229.222 20.5733 229.936 21.1277 230.76 21.4444C232.04 21.9457 233.373 22.2997 234.733 22.4997C235.502 22.6246 236.261 22.808 237.003 23.0485C237.407 23.1642 237.771 23.3908 238.054 23.7028C238.242 23.9709 238.338 24.2932 238.327 24.6209C238.342 24.906 238.277 25.1896 238.139 25.4395C238.002 25.6894 237.797 25.8957 237.549 26.0351C236.873 26.3639 236.125 26.5163 235.374 26.4783C234.467 26.5447 233.565 26.295 232.82 25.7713C232.235 25.256 231.861 24.5418 231.769 23.7661L227.733 23.9455C227.811 24.9819 228.175 25.9761 228.784 26.816C229.427 27.7024 230.305 28.3898 231.317 28.8001C232.615 29.3089 234.002 29.5494 235.395 29.5071C236.655 29.5317 237.91 29.3389 239.105 28.9373C240.07 28.6244 240.924 28.038 241.564 27.2487C242.092 26.5132 242.39 25.636 242.418 24.7296C242.446 23.8232 242.203 22.9291 241.722 22.162C241.191 21.4383 240.46 20.8877 239.62 20.579Z" fill="white"/>
<path d="M250.203 9.10754H246.262V12.9701H243.677V16.0305H246.262V24.737C246.208 25.3822 246.283 26.0316 246.481 26.6476C246.68 27.2636 246.998 27.8338 247.418 28.3252C248.427 29.1675 249.726 29.5769 251.033 29.4649H254.543V26.3834H252.231C251.683 26.429 251.137 26.2713 250.697 25.9401C250.511 25.7222 250.371 25.4684 250.286 25.1944C250.202 24.9205 250.173 24.6319 250.203 24.3466V16.0094H254.543V12.949H250.203V9.10754Z" fill="white"/>
<path d="M271.485 26.2251C271.358 26.235 271.231 26.2175 271.111 26.1738C270.991 26.1301 270.882 26.0612 270.791 25.9718C270.606 25.712 270.524 25.3923 270.56 25.0748V19.0805C270.62 18.1561 270.492 17.2291 270.183 16.3563C269.874 15.4835 269.391 14.6831 268.763 14.0044C267.313 12.7409 265.424 12.1037 263.508 12.2314C261.744 12.1478 260 12.6402 258.537 13.635C257.242 14.6103 256.381 16.0585 256.141 17.6664L260.145 17.8458C260.298 17.1041 260.694 16.4353 261.27 15.9462C261.912 15.4698 262.7 15.2346 263.498 15.2813C263.932 15.2502 264.368 15.3133 264.776 15.4662C265.184 15.6192 265.555 15.8584 265.862 16.1678C266.45 16.9148 266.735 17.857 266.661 18.8061L261.217 19.8615C259.746 20.0602 258.355 20.6545 257.192 21.5817C256.744 22.0103 256.393 22.5312 256.165 23.1087C255.936 23.6862 255.835 24.3065 255.868 24.9271C255.84 25.5657 255.969 26.2014 256.242 26.7789C256.514 27.3564 256.924 27.8582 257.434 28.2408C258.664 29.0962 260.143 29.5157 261.637 29.4333C262.583 29.4462 263.522 29.2889 264.412 28.969C265.181 28.6932 265.879 28.2458 266.451 27.6604C266.781 27.318 267.051 26.9219 267.25 26.489C267.296 26.9183 267.417 27.3363 267.607 27.7237C267.867 28.2397 268.304 28.6443 268.837 28.8635C269.417 29.0858 270.034 29.1968 270.655 29.1906C270.939 29.1906 271.222 29.1906 271.496 29.1906C271.698 29.1834 271.899 29.1515 272.095 29.0956V26.2251H271.485ZM266.619 22.4259C266.644 23.1884 266.462 23.9433 266.094 24.6105C265.751 25.2267 265.241 25.732 264.622 26.0668C263.918 26.4322 263.134 26.6137 262.342 26.5945C261.7 26.6348 261.064 26.4481 260.544 26.0668C260.332 25.8846 260.164 25.6554 260.055 25.3972C259.946 25.139 259.897 24.8589 259.914 24.5788C259.905 24.3179 259.951 24.0581 260.049 23.8163C260.146 23.5744 260.294 23.356 260.481 23.1752C261.028 22.7382 261.681 22.4575 262.373 22.3626L266.577 21.4972L266.619 22.4259Z" fill="white"/>
<path d="M20.7776 18.5106V37H11.6026L9.17492 33.1269L0 18.4894V0H9.17492L11.6026 3.86252L20.7776 18.5106Z" fill="#66DCA1"/>
<path d="M41.5446 18.5106V37H32.3697L29.942 33.1269L20.7776 18.4894V0H29.9525L32.3697 3.86252L41.5446 18.5106Z" fill="#66DCA1"/>
<path d="M62.3222 18.5106V37H53.1368L50.7195 33.1269L41.5446 18.4894V0H50.7195L53.1473 3.86252L62.3222 18.5106Z" fill="#66DCA1"/>
</svg>
