<svg width="14" height="19" viewBox="0 0 14 19" fill="none" xmlns="http://www.w3.org/2000/svg">
<path d="M7 0C5.14348 0 3.36301 0.737498 2.05025 2.05025C0.737498 3.36301 0 5.14348 0 7C0 10.4919 6.45736 18.7209 6.45736 18.7209H7C7 18.7209 14 10.8657 14 7C14 5.14348 13.2625 3.36301 11.9497 2.05025C10.637 0.737498 8.85652 0 7 0ZM7 10.4186C6.32386 10.4186 5.66291 10.2181 5.10072 9.84247C4.53854 9.46682 4.10037 8.93291 3.84162 8.30824C3.58288 7.68358 3.51518 6.99621 3.64708 6.33306C3.77899 5.66992 4.10458 5.06078 4.58268 4.58268C5.06078 4.10458 5.66992 3.77899 6.33306 3.64708C6.99621 3.51518 7.68358 3.58287 8.30824 3.84162C8.93291 4.10037 9.46683 4.53854 9.84247 5.10072C10.2181 5.66291 10.4186 6.32386 10.4186 7C10.4186 7.44894 10.3302 7.89348 10.1584 8.30824C9.98658 8.72301 9.73477 9.09987 9.41732 9.41732C9.09987 9.73477 8.72301 9.98658 8.30824 10.1584C7.89348 10.3302 7.44894 10.4186 7 10.4186Z" fill="#154244"/>
</svg>
