<svg width="42" height="42" viewBox="0 0 42 42" fill="none" xmlns="http://www.w3.org/2000/svg">
<circle cx="21" cy="21" r="21" transform="matrix(-1 0 0 1 42 0)" fill="#154244"/>
<path d="M26 21C26 21.3073 25.885 21.5695 25.646 21.8045L18.7434 28.7017C18.5575 28.9006 18.3097 29 18.0265 29C17.4513 29 17 28.548 17 27.9514C17 27.6621 17.115 27.4 17.3097 27.2011L23.531 21L17.3097 14.7989C17.115 14.591 17 14.3288 17 14.0395C17 13.452 17.4513 13 18.0265 13C18.3097 13 18.5575 13.0994 18.7434 13.2983L25.646 20.1955C25.885 20.4305 25.9912 20.6927 26 21Z" fill="#66DCA1"/>
</svg>
